<svg version="1.1" id="logo" xmlns="http://www.w3.org/2000/svg" xmlns:xlink="http://www.w3.org/1999/xlink" x="0px" y="0px"
     width="567px" height="142px" viewBox="0 0 567 142" enable-background="new 0 0 567 142"
     xml:space="preserve">
<g>
    <g class="brackets">
        <path d="M63.924,58.95L51.988,74.127l12.026,15.425l-2.94,1.815l-14.43-16.58v-1.32l14.341-16.333L63.924,58.95z"/>
        <path d="M526.031,73.467v1.32l-14.52,16.58l-3.029-1.815l12.025-15.425L508.572,58.95l3.027-1.815L526.031,73.467z"/>
    </g>
    <g>
        <path d="M101.838,45.522h-16.56v45.504h-4.752V45.522H64.038v-4.176h37.8V45.522z"/>
        <path d="M96.474,59.382c2.423-2.76,6.563-4.14,12.42-4.14c5.855,0,9.983,1.38,12.384,4.14c2.4,2.761,3.6,7.5,3.6,14.22
            c0,6.721-1.2,11.448-3.6,14.184c-2.4,2.736-6.528,4.104-12.384,4.104c-5.857,0-9.997-1.379-12.42-4.14
            c-2.424-2.76-3.636-7.476-3.636-14.148C92.837,66.882,94.049,62.143,96.474,59.382z M117.678,62.298
            c-1.632-2.063-4.561-3.096-8.784-3.096c-4.224,0-7.153,1.033-8.784,3.096c-1.632,2.064-2.448,5.832-2.448,11.304
            c0,5.472,0.815,9.241,2.448,11.304c1.631,2.064,4.56,3.096,8.784,3.096c4.223,0,7.152-1.032,8.784-3.096
            c1.631-2.063,2.448-5.832,2.448-11.304C120.125,68.13,119.309,64.362,117.678,62.298z"/>
        <path d="M136.253,56.178l0.288,5.76c5.136-4.464,10.032-6.696,14.688-6.696c4.943,0,7.895,2.185,8.856,6.552
            c5.087-4.367,9.936-6.552,14.544-6.552c2.976,0,5.256,0.817,6.84,2.448c1.584,1.632,2.376,4.008,2.376,7.128v26.208h-4.536V66.042
            c-0.048-2.4-0.565-4.14-1.548-5.22c-0.984-1.08-2.532-1.62-4.644-1.62c-1.92,0-3.769,0.445-5.544,1.332
            c-1.776,0.889-4.176,2.46-7.2,4.716v25.776h-4.392V66.042c0-2.4-0.504-4.14-1.512-5.22c-1.008-1.08-2.568-1.62-4.68-1.62
            c-1.872,0-3.708,0.445-5.508,1.332c-1.8,0.889-4.212,2.437-7.236,4.644v25.848h-4.536V56.178H136.253z"/>
        <path d="M192.658,60.21l-0.432-3.384c6.959-1.055,12.552-1.584,16.776-1.584c3.744,0,6.54,0.828,8.388,2.484
            c1.847,1.656,2.772,4.404,2.772,8.244v25.056h-3.6l-0.576-6.12c-1.728,1.728-3.973,3.276-6.732,4.644
            c-2.761,1.368-5.604,2.052-8.532,2.052c-3.072,0-5.497-0.816-7.272-2.448c-1.776-1.631-2.664-3.96-2.664-6.984v-4.032
            c0-2.688,0.792-4.775,2.376-6.264c1.584-1.487,3.84-2.232,6.768-2.232h15.624V65.97c0-2.304-0.54-4.007-1.62-5.112
            c-1.08-1.104-3.013-1.656-5.796-1.656C204.009,59.202,198.85,59.538,192.658,60.21z M195.394,78.714v3.024
            c0,3.888,2.04,5.832,6.12,5.832c2.112,0.048,4.475-0.468,7.092-1.548c2.616-1.08,4.932-2.531,6.948-4.356v-8.352h-14.904
            C197.145,73.458,195.394,75.258,195.394,78.714z M203.458,51.426l-1.728-2.16l11.808-10.512l2.736,3.456L203.458,51.426z"/>
        <path d="M245.65,76.266l-10.656-2.016c-2.736-0.528-4.716-1.523-5.94-2.988c-1.224-1.463-1.836-3.636-1.836-6.516
            c0-3.936,0.996-6.516,2.988-7.74c1.991-1.224,5.46-1.811,10.404-1.764c5.279,0.097,10.031,0.457,14.256,1.08l-0.433,3.312
            c-5.76-0.288-10.176-0.432-13.247-0.432c-3.841-0.047-6.385,0.229-7.633,0.828c-1.248,0.601-1.872,2.172-1.872,4.716
            c0,1.969,0.407,3.336,1.225,4.104c0.815,0.768,2.184,1.344,4.104,1.728l10.729,2.016c2.783,0.576,4.824,1.573,6.12,2.988
            c1.296,1.416,1.943,3.54,1.943,6.372c0,4.08-1.092,6.744-3.275,7.992c-2.185,1.248-5.917,1.872-11.196,1.872
            c-4.752,0-9.192-0.312-13.32-0.936l0.36-3.384c3.791,0.336,7.848,0.48,12.168,0.432c4.271-0.047,7.14-0.443,8.604-1.188
            c1.464-0.744,2.196-2.34,2.196-4.788c0-1.872-0.457-3.192-1.368-3.96C249.058,77.227,247.618,76.65,245.65,76.266z M253.21,41.418
            l-10.224,8.856h-2.305l-10.151-8.856l1.728-2.016l9.288,6.624h0.576l9.36-6.624L253.21,41.418z"/>
        <path d="M297.489,65.106v0.288c3.6,0.336,6.167,1.596,7.703,3.78c1.536,2.185,2.305,5.34,2.305,9.468
            c0,4.993-1.225,8.4-3.672,10.224c-2.448,1.825-6.649,2.736-12.601,2.736c-8.64,0-15.24-0.192-19.8-0.576v-49.68
            c4.079-0.383,9.937-0.576,17.568-0.576c6.383,0,10.811,0.9,13.284,2.7c2.471,1.8,3.707,5.22,3.707,10.26
            c0,3.6-0.672,6.325-2.016,8.172C302.624,63.75,300.465,64.818,297.489,65.106z M280.281,62.01h9c3.071,0,5.184-0.492,6.336-1.476
            c1.151-0.983,1.728-2.868,1.728-5.652c0-2.736-0.624-4.56-1.872-5.472c-1.249-0.911-3.553-1.368-6.912-1.368h-8.279V62.01z
             M280.281,84.258l9.432,0.072c3.407,0,5.724-0.492,6.948-1.476c1.224-0.983,1.836-2.94,1.836-5.868
            c0-3.264-0.648-5.472-1.944-6.624s-3.672-1.751-7.128-1.8h-9.144V84.258z"/>
        <path d="M334.568,77.058h-14.4c0.336,3.072,1.199,5.124,2.593,6.156c1.392,1.033,3.672,1.548,6.84,1.548
            c3.6,0,7.823-0.288,12.672-0.864l0.792,5.616c-3.312,1.584-8.161,2.376-14.544,2.376c-6.385,0-10.921-1.415-13.608-4.248
            c-2.688-2.832-4.032-7.607-4.032-14.328c0-6.864,1.32-11.675,3.961-14.436c2.639-2.76,7.007-4.14,13.104-4.14
            c5.616,0,9.695,1.021,12.24,3.06c2.543,2.041,3.815,5.101,3.815,9.18C344,73.699,340.856,77.058,334.568,77.058z M320.024,70.938
            h12.096c2.112,0,3.168-1.368,3.168-4.104c0-1.919-0.504-3.264-1.512-4.032c-1.008-0.767-2.833-1.152-5.472-1.152
            c-3.072,0-5.196,0.637-6.372,1.908C320.756,64.83,320.12,67.29,320.024,70.938z"/>
        <path d="M382.066,40.626v50.4h-6.912l-0.72-4.824c-4.081,3.792-8.641,5.688-13.681,5.688c-4.319,0-7.464-1.571-9.432-4.716
            c-1.969-3.143-2.952-7.812-2.952-14.004c0-6.768,1.092-11.531,3.276-14.292c2.184-2.76,5.604-4.14,10.26-4.14
            c4.512,0,8.424,1.033,11.736,3.096c-0.241-1.919-0.36-4.272-0.36-7.056V40.626H382.066z M373.282,80.802V63.306
            c-3.841-0.959-6.768-1.44-8.784-1.44c-2.735,0-4.607,0.732-5.615,2.196c-1.009,1.465-1.513,4.476-1.513,9.036
            c0,4.464,0.492,7.477,1.477,9.036c0.982,1.561,2.699,2.34,5.147,2.34c1.632,0,3.048-0.252,4.248-0.756
            C369.441,83.214,371.122,82.242,373.282,80.802z"/>
        <path d="M399.591,50.706l-10.656-9.432l2.664-3.672l9.576,5.904h0.576l9.504-5.904l2.808,3.672l-10.656,9.432H399.591z
             M396.423,55.746l0.792,5.184c5.04-4.127,9.888-6.192,14.544-6.192h1.728l-0.936,8.208h-2.521c-2.496,0-6.384,1.057-11.664,3.168
            v24.912h-8.783v-35.28H396.423z"/>
        <path d="M420.736,40.41h4.031c1.68,0,2.521,0.841,2.521,2.52v3.96c0,1.681-0.841,2.52-2.521,2.52h-4.031
            c-1.681,0-2.521-0.839-2.521-2.52v-3.96C418.216,41.25,419.056,40.41,420.736,40.41z M427.145,91.026h-8.713v-35.28h8.713V91.026z
            "/>
        <path d="M462.497,83.97l0.792,5.76c-3.505,1.44-7.825,2.16-12.961,2.16c-6.288,0-10.728-1.392-13.319-4.176
            c-2.592-2.783-3.889-7.583-3.889-14.4c0-6.815,1.308-11.616,3.925-14.4c2.615-2.783,7.067-4.176,13.355-4.176
            c4.943,0,9.048,0.673,12.312,2.016l-1.008,5.472c-2.353-0.096-5.616-0.144-9.793-0.144c-3.647,0-6.168,0.792-7.56,2.376
            c-1.393,1.584-2.088,4.536-2.088,8.856c0,4.368,0.695,7.356,2.088,8.964c1.392,1.609,3.912,2.412,7.56,2.412
            C455.752,84.69,459.28,84.45,462.497,83.97z"/>
        <path d="M476.982,40.626v12.96c0,2.592-0.192,4.968-0.576,7.128c5.231-3.983,10.199-5.976,14.904-5.976
            c3.119,0,5.52,0.84,7.2,2.52c1.68,1.681,2.52,4.104,2.52,7.272v26.496h-8.784V67.194c0-1.968-0.264-3.3-0.792-3.996
            c-0.528-0.695-1.512-1.044-2.951-1.044c-2.785,0-6.649,1.44-11.593,4.32v24.552h-8.783v-50.4H476.982z"/>
    </g>
</g>
</svg>